# xmcd
#
# Track frame offsets:
#	150
#	19665
#	39150
#	58354
#	81505
#	99338
#	117815
#	141414
#
# Disc length: 2163 seconds
#
# Revision: 3
# Processed by: cddbd v1.5.2PL0 Copyright (c) Steve Scherf et al.
# Submitted via: EasyCDDAExtractor 15.2.5.1
#
DISCID=67087108
DTITLE=임재범 - Memories
DYEAR=2000
DGENRE=Ballad
TTITLE0=사진속에 담긴 추억
TTITLE1=추락
TTITLE2=거인의 잠
TTITLE3=사랑보다 깊은 상처
TTITLE4=Reason`s To One
TTITLE5=아직도 사랑할 뿐인데
TTITLE6=그대는 어디에
TTITLE7=Have I Told You Lately
EXTD=
EXTT0=
EXTT1=
EXTT2=
EXTT3=
EXTT4=
EXTT5=
EXTT6=
EXTT7=
PLAYORDER=
